<svg xmlns="http://www.w3.org/2000/svg" viewBox="-30 -80 324 273" fill="none">
	<path fill="#2FCA94" d="M189.07 0.85c-24.3 4.4-39.5 14.7-80.5 54.5-35.2 34.2-37.3 35.9-49.8 39.7-18.4 5.6-39.1-3.2-47.4-20-6.5-13.2-2.6-32.5 8.4-42.1 8.7-7.7 14.1-9.6 27.3-9.6 14.7 0 19.4 2.1 37.4 16.5 12.8 10.3 12.8 10.3 15.4 7.6 2.7-2.7 2.7-2.7-1.3-6.2-25.2-21.9-34.3-26.7-51-26.8-14.7 0-25.7 4.6-35 14.6-30.7 33.2-.9 83.4 44.4 74.8 14-2.6 23.6-9.7 54.3-39.8 46.8-46 63.7-56.2 92.8-56.3 61.2-.1 73.1 80.1 14.2 95.2-24 6.1-50.2-3-81.4-28.3-10.1-8.2-11.3-8.6-14.6-4.5-2.7 3.3 25.8 25.1 43.3 33.2 31.9 14.8 63.1 11.8 82.9-8 31.2-31.2 15.8-83.8-27.5-94-6.8-1.6-24.1-1.8-31.9-.5Z"/>
</svg>
